<?xml version="1.0" encoding="UTF-8"?>
<svg id="Layer_1" xmlns="http://www.w3.org/2000/svg" version="1.1" viewBox="0 0 256 256">
  <!-- Generator: Adobe Illustrator 29.4.0, SVG Export Plug-In . SVG Version: 2.1.0 Build 152)  -->
  <defs>
    <style>
      .st0 {
        fill: #0058a1;
      }
    </style>
  </defs>
  <path class="st0" d="M242.32,130.98c-.38,1.37-.2,2.91-1.45,3.85-2.04,1.53-7.47,2.77-10.13,3.86-6.22,2.53-12.62,6.54-17.24,11.44-6.42,6.79-10.18,15.52-15.05,23.37-12.32,19.85-32.3,34.48-54.85,40.66l-12.18,2.58h-1.84c-1.3-.54-1.03-1.17-.77-2.39,3.76-4.82,7.38-9.77,10.58-14.99.67-1.1,1.36-2.21,1.92-3.38-3.38,2.02-6.58,4.25-10.22,5.82-15.52,6.69-34.17,4.64-49.72-.91-3.81-1.36-13.93-5.43-15.9-8.82-.73-1.26.74-1.46,1.7-1.78,2.21-.73,4.52-1.18,6.75-1.87,8.27-2.56,16.15-6.74,23.22-11.68l4.48-3.5c-7.73.81-15.46.36-23.03-1.34-10.03-2.25-19.21-6.68-27.82-12.16-1.63-1.04-6.85-4.31-7.78-5.64-.75-1.07.25-1.36,1.14-1.69,2.43-.9,5.16-1.45,7.66-2.37,6.87-2.54,11.68-5.36,17.58-9.55,8.78-6.24,19.5-9.87,30.25-6.56,9.7,2.98,11.42,10.12,18.12,16.22,22.96,20.92,67.36,17.66,80.84-12.55,7.54-16.91,3.68-37.2-5.76-52.5-21.37-34.63-67.7-45.02-102.39-23.72-11.93,7.32-19.02,18.24-28.35,28.16-2.92,3.1-5.8,5.61-9.05,8.33-.63.53-1.69,2.17-2.6,1.19-1.03-1.1.2-4.15.63-5.43,13.63-40.58,58.02-61.96,99.07-51.88,39.31,9.66,70.01,46.36,62.8,88.15-.4,2.32-.99,4.6-1.51,6.89,7.17-5.17,15.35-9.23,23.88-11.66,1.63-.46,5.55-1.7,6.46.18l.6,2.57v3.11ZM151.9,199.65c15.37-6.47,28.04-17.97,36.88-32,.27-.43,2.01-3.09,1.83-3.32-5.83,3.4-12.22,6.22-18.76,8.01-2.78.76-5.69,1.12-8.43,1.89-1.79.51-1.95.44-2.56,2.25-2,5.97-2.6,12.75-5.86,18.44-.8,1.39-2.09,2.77-2.89,4.18-.1.18-.27.31-.22.55ZM148.08,174.92c-6.69-.52-13.04-2.28-19.17-4.92-.55-.24-3.51-1.76-3.76-1.7-3.56,3.84-7.28,7.41-11.42,10.63-6.73,5.24-14.25,9.39-21.32,14.14,0,.19,2.05.53,2.37.59,19.14,3.53,41.74-1.64,53.22-18.32l.07-.42ZM66.14,155.85c13.07,5.73,26.94,8.78,41.14,5.61.69-.15,4.65-1.06,4.78-1.58-.57-.76-1.55-1.32-2.26-1.97-4.1-3.77-6.95-9.07-11.74-12.14-4.3-2.76-10.07-3.1-14.73-1.05l-17.19,11.14Z"/>
  <path class="st0" d="M111.35,109.79c-2.19,2.47-3.97,5.86-4.87,9.04-.35,1.24-.44,2.61-.85,3.81-.13.38-.43,1.2-.84,1.28-4.29-.33-8.57-.83-12.86-1.13-9.37-.66-19.47-1.21-28.83-.71-9.53.51-19.3,3.01-28.84,4.22-5.33.68-11.9,1.6-17.22,1.3-.56-.03-1.91-.12-2.24-.44-1.1-1.05-1.24-5.76-1.03-7.23.49-3.39,6.5-2.77,8.93-2.93,13.91-.96,27.47-7.8,38.14-16.39,11.4-9.17,20.02-21.57,32.1-29.92,34.26-23.66,86.39-8.32,97.21,33.15,9.78,37.48-27.46,62.49-59.96,44.28-13.54-7.59-22.37-22.55-18.84-38.31ZM172.2,134.32c13.69-13.74,7.34-36.81-5.32-48.91-14.55-13.91-37.67-17.06-56.27-10.21-18.14,6.69-28.71,23.47-43.13,35.28-1.21.99-2.54,2.05-3.88,2.83l.07.28c10.66-.22,21.33-.17,32.01-.35,1.61-1.05,2.05-3.09,2.94-4.69,10.78-19.51,41.04-31.44,59.57-15.58,8.07,6.91,12.66,19.11,8.11,29.29-6.66,14.89-32.62,10.99-32.76-4.23-.05-5.16,4.82-9.89,9.66-6.26,1.87,1.4.26,2.06.39,3.7.18,2.22,2.52,4.44,4.59,5.03,6.97,1.96,8.95-5.51,7.45-10.84-3.08-10.87-19.18-15.12-27.65-7.94-7.46,6.32-8.02,17.73-3.49,25.95,9.37,17,34.04,20.37,47.73,6.64Z"/>
</svg>